<?xml version="1.0" ?><svg viewBox="0 0 512 512" xmlns="http://www.w3.org/2000/svg"><title/><g id="Kids_wear"><path d="M339.88,229.0927a2,2,0,0,0,0,4h26.0149a77.0019,77.0019,0,0,0,18.8972,48.5894,2,2,0,1,0,3.0156-2.627,73.0058,73.0058,0,0,1-17.9128-45.9624h32.404L377.8027,427.78H327.2705V337.5839a2,2,0,0,0-4,0V427.78H272.7393l-11.38-90.4453a2,2,0,1,0-3.9688.499L269.2119,431.78H381.33l25.5039-202.687Z"/><path d="M148.0127,322.9111H327.2715v-120H369.85v-56.396A62.1359,62.1359,0,0,0,307.7842,84.45H282.2334l.2888,0h-.6511v0a2,2,0,0,0-2,2,42.23,42.23,0,0,1-84.459,0,2,2,0,0,0-2-2v0h-4.2059v0H167.499a62.1359,62.1359,0,0,0-62.0654,62.0655v56.396h42.5791Zm-38.4561-180h38.4561v26H109.4336v-22.396C109.4336,145.3037,109.4832,144.1042,109.5566,142.9111Zm42.4561,0H323.2705v26H152.0127Zm171.2578,30v26H152.0127v-26Zm-171.2578,120H323.2715v26H152.0127Zm171.0312-34H152.0127v-26H323.2715V258.93A2.1826,2.1826,0,0,0,323.0439,258.9111Zm-171.0312,4H323.1511c.0414,0,.08-.011.12-.0134v26.0134H152.0127Zm0-34v-26H323.2715v26Zm175.2578-60v-26h38.4561c.0734,1.1931.123,2.3926.123,3.604v22.396Zm38.5791,30H327.2705v-26H365.85ZM283.82,88.45h23.9639a57.9455,57.9455,0,0,1,44.1916,20.4615h-73.948A45.8955,45.8955,0,0,0,283.82,88.45Zm-46.1787,44.23a46.1991,46.1991,0,0,0,37.8738-19.768H355.093a57.72,57.72,0,0,1,10.2427,26H109.9475a57.72,57.72,0,0,1,10.2427-26h79.5776A46.1991,46.1991,0,0,0,237.6416,132.6791ZM167.499,88.45h23.9639a45.8955,45.8955,0,0,0,5.7925,20.4615h-73.948A57.9455,57.9455,0,0,1,167.499,88.45ZM109.4336,198.9111v-26h38.5791v26Z"/><path d="M228.0078,387.7573h-31.63A14.4937,14.4937,0,0,1,181.9,373.28a1.8229,1.8229,0,0,1,0-.95,2,2,0,0,0-2-2H140.8369a35.4435,35.4435,0,0,0-35.4033,35.4038V431.78H230.0078V389.7573A2,2,0,0,0,228.0078,387.7573ZM167.7783,374.33v14.0059a5.9578,5.9578,0,0,1-5.9512,5.9507h-3.7607a5.9579,5.9579,0,0,1-5.9512-5.9507V374.33Zm-58.3447,53.45v-5.458h96.5742a2,2,0,1,0,0-4H109.4336V405.7333A31.44,31.44,0,0,1,140.8369,374.33h7.2783v14.0059a9.9621,9.9621,0,0,0,9.9512,9.9507h3.7607a9.9621,9.9621,0,0,0,9.9512-9.9507V374.33h6.1753a18.4852,18.4852,0,0,0,18.4243,17.4278h29.63V427.78Z"/></g></svg>