<?xml version="1.0" ?><!DOCTYPE svg  PUBLIC '-//W3C//DTD SVG 1.1//EN'  'http://www.w3.org/Graphics/SVG/1.1/DTD/svg11.dtd'><svg height="80px" id="Layer_1" style="enable-background:new 0 0 80 80;" version="1.1" viewBox="0 0 80 80" width="80px" xml:space="preserve" xmlns="http://www.w3.org/2000/svg" xmlns:xlink="http://www.w3.org/1999/xlink"><style type="text/css">
	.st0{fill:#1C2B36;}
</style><g><path class="st0" d="M49.9,11.3c0,0-0.6-0.2-1,0.3c-3.2,4.8-6.4,5.3-9,5.3c-2.5,0-5.7-0.4-9-5.3c-0.3-0.5-1-0.3-1-0.3   c-4.3,3.2-12.4,4.3-13.5,5.7c-2.4,3.1-7.8,23.2-8.5,28c1.2,7.1,7,23.8,7,23.8c1.9,0.2,5.4-0.8,6.7-1.9c0,0-4.1-19.5-4-21.8   c0.6-1.8,3.6-12.4,4.6-12.4c0.5,0,2,3.4,2,10.6c0,5.4-1.8,16.3-1.8,19.8c4.3,1.6,12.4,2.2,17.3,2.2C44.3,65,53,64.5,57.3,63   c0-3.5-1.8-14.4-1.8-19.8c0-7.2,1.5-10.6,2-10.6c1,0,4,10.6,4.6,12.4c0.1,2.3-4,21.8-4,21.8c1.3,1.1,4.8,2.1,6.7,1.9   c0,0,5.9-16.8,7-23.8c-0.7-4.8-6.1-24.9-8.5-28C62.3,15.6,54.2,14.5,49.9,11.3z"/></g></svg>